<?xml version="1.0" encoding="UTF-8" standalone="no"?>
<svg
   xmlns:dc="http://purl.org/dc/elements/1.1/"
   xmlns:cc="http://creativecommons.org/ns#"
   xmlns:rdf="http://www.w3.org/1999/02/22-rdf-syntax-ns#"
   xmlns:svg="http://www.w3.org/2000/svg"
   xmlns="http://www.w3.org/2000/svg"
   xmlns:sodipodi="http://sodipodi.sourceforge.net/DTD/sodipodi-0.dtd"
   xmlns:inkscape="http://www.inkscape.org/namespaces/inkscape"
   height="64"
   width="64"
   version="1.1"
   viewBox="0 0 16.933333 16.933334"
   id="svg8"
   sodipodi:docname="io.github.konkor.onedown.svg"
   inkscape:version="0.92.4 (5da689c313, 2019-01-14)"
   inkscape:export-filename="/home/pi/Projects/onedown/data/io.github.konkor.onedown.svg.png"
   inkscape:export-xdpi="96"
   inkscape:export-ydpi="96">
  <metadata
     id="metadata14">
    <rdf:RDF>
      <cc:Work
         rdf:about="">
        <dc:format>image/svg+xml</dc:format>
        <dc:type
           rdf:resource="http://purl.org/dc/dcmitype/StillImage" />
        <dc:title />
      </cc:Work>
    </rdf:RDF>
  </metadata>
  <defs
     id="defs12" />
  <sodipodi:namedview
     pagecolor="#ffffff"
     bordercolor="#666666"
     borderopacity="1"
     objecttolerance="10"
     gridtolerance="10"
     guidetolerance="10"
     inkscape:pageopacity="0"
     inkscape:pageshadow="2"
     inkscape:window-width="1920"
     inkscape:window-height="1136"
     id="namedview10"
     showgrid="false"
     inkscape:zoom="7.5853271"
     inkscape:cx="5.9970863"
     inkscape:cy="37.02351"
     inkscape:window-x="0"
     inkscape:window-y="36"
     inkscape:window-maximized="1"
     inkscape:current-layer="svg8"
     inkscape:showpageshadow="false"
     inkscape:snap-global="true"
     inkscape:snap-object-midpoints="true" />
  <rect
     rx="0.132"
     height="0.47799999"
     width="1.3200001"
     y="17.722502"
     x="0.074100003"
     id="rect6"
     style="fill:#ffffff" />
  <path
     style="fill:#bebebe;fill-opacity:1;stroke:none;stroke-width:0.26458335"
     d="m -3.5331179,10.199894 c -1.0250493,1.63e-4 -1.9390921,0.803245 -1.3962959,1.799761 0.133206,0.238495 0.3822417,0.515109 0.2268582,0.644018 l -1.067635,-0.33538 c 0.823876,0.673074 1.4766454,1.253783 2.2370727,1.899626 0.8541039,-0.624708 1.3963516,-1.185641 2.2370729,-1.899626 l -0.9554972,0.30024 c -0.1060383,-0.129156 -0.024313,-0.29201 0.1239574,-0.573997 0.6546633,-1.122662 -0.3802815,-1.834753 -1.4055331,-1.834642 z M -3.9093223,10.8474 v 1.017509 h 0.7524089 v -1.016992 c 0.6879253,0.165524 0.7943375,0.591401 0.4592132,1.134298 -0.7111971,0.359524 -0.240864,1.193163 -0.8354177,0.924751 -0.6192798,0.245775 -0.084457,-0.547662 -0.8179771,-0.924751 -0.3359907,-0.574102 -0.2463472,-0.969244 0.4417727,-1.134815 z"
     id="path3763"
     inkscape:connector-curvature="0"
     sodipodi:nodetypes="ccccccccccccccccc" />
  <path
     style="fill:#333333;fill-opacity:1;stroke:#707070;stroke-width:0.26209307;stroke-miterlimit:4;stroke-dasharray:none;stroke-opacity:1"
     d="m 8.4666658,2.3272735 c -0.5978198,0 -1.0784034,0.3896448 -1.0784034,0.8736433 v 3.810244 c 0,0.4840011 0.4805836,0.8736456 1.0784034,0.8736456 0.5978197,0 1.0784033,-0.3896445 1.0784033,-0.8736456 v -3.810244 c 0,-0.4839985 -0.4805836,-0.8736433 -1.0784033,-0.8736433 z M 5.9105762,3.4841684 C 5.7968237,3.4812831 5.6744531,3.5009096 5.5454191,3.5490087 3.5691998,4.5783231 2.3386489,6.5639694 2.3392177,8.7226154 2.339617,11.971684 5.0826892,14.605519 8.4666658,14.60606 11.850645,14.605521 14.59372,11.971684 14.594116,8.7226154 14.594684,6.5639694 13.364135,4.5783231 11.387912,3.5490087 10.355713,3.1642881 9.6383123,4.9730371 10.361223,5.3908596 11.627766,6.0471049 12.462937,7.3143431 12.464212,8.7460001 12.463706,10.865429 10.674095,12.583287 8.4666658,12.583336 6.2592359,12.583287 4.4696286,10.865429 4.46912,8.7460004 4.4703932,7.3143435 5.3055655,6.0471053 6.5721084,5.39086 7.2046559,5.0252672 6.7067909,3.5043867 5.9105762,3.4841684 Z"
     id="path847"
     inkscape:connector-curvature="0"
     sodipodi:nodetypes="ssssssscccccccccccc" />
  <path
     sodipodi:nodetypes="ccccccccccccccccc"
     inkscape:connector-curvature="0"
     id="path4588"
     d="m -8.5734136,10.199894 c -1.0250493,1.63e-4 -1.9390924,0.803245 -1.396296,1.799761 0.1332061,0.238495 0.2280883,0.360956 0.072705,0.489865 l -0.9134814,-0.181227 c 0.8238756,0.673074 1.4766451,0.933144 2.2370724,1.578986 0.8541039,-0.624707 1.3963516,-0.865001 2.2370729,-1.578986 l -0.9246665,0.195416 c -0.1060383,-0.129156 -0.055143,-0.187186 0.093127,-0.469173 0.6546634,-1.122662 -0.3802815,-1.834753 -1.4055334,-1.834642 z M -8.949618,10.8474 v 0.844857 h 0.7524088 v -0.84434 c 0.6879253,0.165524 0.7943376,0.591401 0.4592133,1.134298 -0.2918998,0.692495 -0.231199,0.924751 -0.8354177,0.924751 -0.6018137,0 -0.5099201,-0.220857 -0.8179771,-0.924751 -0.3359907,-0.574102 -0.2463472,-0.969244 0.4417727,-1.134815 z"
     style="fill:#bebebe;fill-opacity:1;stroke:none;stroke-width:0.26458335" />
  <path
     style="fill:#333333;fill-opacity:1;stroke:none;stroke-width:0.26458335"
     d="m -8.5734136,10.199894 c -1.0250493,1.63e-4 -1.9390924,0.803245 -1.396296,1.799761 0.1332061,0.238495 0.2280883,0.360956 0.072705,0.489865 l -0.9134814,-0.181227 c 0.8238756,0.673074 1.4766451,0.933144 2.2370724,1.578986 0.8541039,-0.624707 1.3963516,-0.865001 2.2370729,-1.578986 l -0.9246665,0.195416 c -0.1060383,-0.129156 -0.055143,-0.187186 0.093127,-0.469173 0.6546634,-1.122662 -0.3802815,-1.834753 -1.4055334,-1.834642 z M -8.949618,10.8474 v 0.844857 h 0.7524088 v -0.84434 c 0.6879253,0.165524 0.7943376,0.591401 0.4592133,1.134298 -0.2918998,0.692495 -0.231199,0.924751 -0.8354177,0.924751 -0.6018137,0 -0.5099201,-0.220857 -0.8179771,-0.924751 -0.3359907,-0.574102 -0.2463472,-0.969244 0.4417727,-1.134815 z"
     id="path4609"
     inkscape:connector-curvature="0"
     sodipodi:nodetypes="ccccccccccccccccc" />
  <path
     style="fill:#707070;fill-opacity:1;stroke:#e8e8e8;stroke-width:0.28371304;stroke-miterlimit:4;stroke-dasharray:none;stroke-opacity:1"
     d="m -24.286536,1.8593025 c -3.664595,-3.968e-4 -7.364071,2.5443993 -5.024085,6.5571722 0.529963,1.0079167 0.711494,1.2155106 0.332478,1.6771573 l -3.304446,-0.6981999 c 3.005022,2.5520229 4.943198,3.4117909 7.996053,5.6447039 3.052856,-2.232913 4.99103,-3.092681 7.996055,-5.6447039 l -3.304447,0.6981999 c -0.379016,-0.4616467 -0.197482,-0.6692406 0.332485,-1.6771573 2.339991,-4.0127729 -1.359489,-6.557569 -5.024082,-6.5571722 z m -1.344682,2.3162529 v 3.018142 h 1.344682 1.344682 v -3.018142 c 2.458878,0.5916386 2.83991,2.1138668 1.642063,4.0543603 -1.043348,2.4752143 -0.827063,3.3062903 -2.986745,3.3062903 -2.159681,0 -1.943396,-0.831076 -2.986744,-3.3062903 -1.197849,-1.9404935 -0.816815,-3.4627217 1.642062,-4.0543603 z"
     id="path4611"
     inkscape:connector-curvature="0" />
  <path
     id="path827"
     d="m -15.556604,5.1071818 a 1.8560073,1.7820137 0 0 0 -1.8557,1.7823202 1.8560073,1.7820137 0 0 0 1.8557,1.7818037 1.8560073,1.7820137 0 0 0 1.856218,-1.7818037 1.8560073,1.7820137 0 0 0 -1.856218,-1.7823202 z m -0.376204,0.5637901 v 1.1012247 h 0.752409 v -1.100708 c 0.560908,0.1595798 0.951182,0.6520167 0.95188,1.2180134 -1.69e-4,0.7041261 -0.594721,1.2748424 -1.328085,1.2748578 -0.733363,-1.54e-5 -1.327915,-0.5707314 -1.328084,-1.2748578 4.93e-4,-0.566157 0.390818,-1.0589001 0.95188,-1.2185301 z"
     style="stroke-width:0.26458335"
     inkscape:connector-curvature="0" />
</svg>
