<?xml version="1.0" encoding="UTF-8" standalone="no"?>
<svg
   xmlns:dc="http://purl.org/dc/elements/1.1/"
   xmlns:cc="http://creativecommons.org/ns#"
   xmlns:rdf="http://www.w3.org/1999/02/22-rdf-syntax-ns#"
   xmlns:svg="http://www.w3.org/2000/svg"
   xmlns="http://www.w3.org/2000/svg"
   id="svg8"
   viewBox="0 0 16.933333 16.933334"
   version="1.1"
   width="64"
   height="64">
  <metadata
     id="metadata14">
    <rdf:RDF>
      <cc:Work
         rdf:about="">
        <dc:format>image/svg+xml</dc:format>
        <dc:type
           rdf:resource="http://purl.org/dc/dcmitype/StillImage" />
        <dc:title></dc:title>
      </cc:Work>
    </rdf:RDF>
  </metadata>
  <defs
     id="defs12" />
  <rect
     style="fill:#ffffff"
     id="rect6"
     x="0.074100003"
     y="17.722502"
     width="1.3200001"
     height="0.47799999"
     rx="0.132" />
  <path
     id="path847"
     d="m 8.4666658,2.3272735 c -0.5978198,0 -1.0784034,0.3896448 -1.0784034,0.8736433 v 3.810244 c 0,0.4840011 0.4805836,0.8736456 1.0784034,0.8736456 0.5978197,0 1.0784033,-0.3896445 1.0784033,-0.8736456 v -3.810244 c 0,-0.4839985 -0.4805836,-0.8736433 -1.0784033,-0.8736433 z M 5.9105762,3.4841684 C 5.7968237,3.4812831 5.6744531,3.5009096 5.5454191,3.5490087 3.5691998,4.5783231 2.3386489,6.5639694 2.3392177,8.7226154 2.339617,11.971684 5.0826892,14.605519 8.4666658,14.60606 11.850645,14.605521 14.59372,11.971684 14.594116,8.7226154 14.594684,6.5639694 13.364135,4.5783231 11.387912,3.5490087 10.355713,3.1642881 9.6383123,4.9730371 10.361223,5.3908596 11.627766,6.0471049 12.462937,7.3143431 12.464212,8.7460001 12.463706,10.865429 10.674095,12.583287 8.4666658,12.583336 6.2592359,12.583287 4.4696286,10.865429 4.46912,8.7460004 4.4703932,7.3143435 5.3055655,6.0471053 6.5721084,5.39086 7.2046559,5.0252672 6.7067909,3.5043867 5.9105762,3.4841684 Z"
     style="fill:#333333;fill-opacity:1;stroke:#707070;stroke-width:0.26209307;stroke-miterlimit:4;stroke-dasharray:none;stroke-opacity:1" />
</svg>
